<?xml version="1.0" encoding="utf-8"?><svg xmlns="http://www.w3.org/2000/svg" xmlns:xlink="http://www.w3.org/1999/xlink"><symbol viewBox="0 0 7 5" id="angle" xmlns="http://www.w3.org/2000/svg"><path d="M7 0L3.5 5 0 0z"/></symbol><symbol viewBox="0 0 23.315 18.652" id="choose" xmlns="http://www.w3.org/2000/svg"><path d="M20.984 2.332h-9.326L9.326 0H2.332a2.328 2.328 0 0 0-2.32 2.332L0 16.321a2.338 2.338 0 0 0 2.332 2.332h18.652a2.338 2.338 0 0 0 2.332-2.332V4.663a2.338 2.338 0 0 0-2.332-2.331zm-5.829 3.5a2.332 2.332 0 1 1-2.332 2.332 2.338 2.338 0 0 1 2.332-2.335zm4.663 9.326h-9.326v-1.169c0-1.55 3.113-2.332 4.663-2.332s4.663.781 4.663 2.332z"/></symbol><symbol viewBox="0 0 35 35" id="circle" xmlns="http://www.w3.org/2000/svg"><g data-name="Group 188"><g data-name="Ellipse 2" transform="translate(3 3)" stroke-width="3"><circle cx="14.5" cy="14.5" r="14.5"/><circle cx="14.5" cy="14.5" r="16"/></g></g></symbol><symbol viewBox="0 0 26.584 26.587" id="cursor" xmlns="http://www.w3.org/2000/svg"><path data-name="Path 14" d="M26.236 21.122l-7.052-7.054 5.031-2.906a1.185 1.185 0 0 0-.153-2.127L1.624.085a1.185 1.185 0 0 0-1.54 1.539l8.949 22.44a1.185 1.185 0 0 0 2.127.154l2.906-5.031 7.052 7.053a1.185 1.185 0 0 0 1.676 0l3.442-3.442a1.185 1.185 0 0 0 0-1.676zm0 0"/></symbol><symbol viewBox="0 0 33.055 30.679" id="curve" xmlns="http://www.w3.org/2000/svg"><path data-name="Path 20" d="M1.421 30.179a.917.917 0 0 0 .913-.8c.447-3.554 2.811-14.08 15.086-14.08 5.055 0 8.951-1.459 11.581-4.338a14.909 14.909 0 0 0 3.551-9.513.922.922 0 0 0-.921-.952h-.02a.916.916 0 0 0-.92.89 13.12 13.12 0 0 1-3.063 8.322c-2.261 2.476-5.7 3.729-10.207 3.729-13.558 0-16.353 11.71-16.912 15.7a.916.916 0 0 0 .914 1.041z"/></symbol><symbol viewBox="0 0 11.537 12.101" id="day" xmlns="http://www.w3.org/2000/svg"><path data-name="Path 30" d="M11.501 7.723l-1.216-1.676 1.216-1.676a.215.215 0 0 0 .027-.2.188.188 0 0 0-.135-.135L9.42 3.387V1.319a.21.21 0 0 0-.088-.175.2.2 0 0 0-.2-.027l-1.973.635L5.943.076a.231.231 0 0 0-.352 0L4.375 1.752l-1.973-.635a.2.2 0 0 0-.2.027.211.211 0 0 0-.087.175v2.068l-1.973.649a.187.187 0 0 0-.135.135.213.213 0 0 0 .027.2L1.25 6.047.034 7.723a.209.209 0 0 0-.027.2.187.187 0 0 0 .135.135l1.973.649v2.068a.212.212 0 0 0 .087.176.2.2 0 0 0 .2.027l1.973-.635 1.216 1.676a.22.22 0 0 0 .352 0l1.216-1.676 1.973.635a.2.2 0 0 0 .2-.027.211.211 0 0 0 .088-.176V8.7l1.973-.649a.187.187 0 0 0 .135-.135.211.211 0 0 0-.027-.2z"/></symbol><symbol viewBox="0 0 34.041 30.396" id="heart" xmlns="http://www.w3.org/2000/svg"><g data-name="Group 51"><path data-name="Path 22" d="M17.02 29.9a1.938 1.938 0 0 1-1.277-.48 384.83 384.83 0 0 0-3.757-3.231l-.006-.005a69.893 69.893 0 0 1-8.2-7.7 12.3 12.3 0 0 1-3.277-8.05 10.327 10.327 0 0 1 2.621-7.053A8.885 8.885 0 0 1 9.73.5a8.31 8.31 0 0 1 5.191 1.792 10.623 10.623 0 0 1 2.1 2.192 10.611 10.611 0 0 1 2.1-2.192A8.311 8.311 0 0 1 24.313.5a8.885 8.885 0 0 1 6.609 2.877 10.327 10.327 0 0 1 2.621 7.053 12.3 12.3 0 0 1-3.277 8.05 69.858 69.858 0 0 1-8.2 7.7 398.485 398.485 0 0 0-3.764 3.237 1.939 1.939 0 0 1-1.277.479zM9.73 2.44a6.97 6.97 0 0 0-5.186 2.253 8.4 8.4 0 0 0-2.109 5.741c0 2.35.873 4.452 2.832 6.815a68.734 68.734 0 0 0 7.968 7.462l.006.005c1.14.972 2.432 2.072 3.776 3.248a440.826 440.826 0 0 1 3.788-3.253 68.793 68.793 0 0 0 7.968-7.461c1.958-2.363 2.831-4.465 2.831-6.815a8.4 8.4 0 0 0-2.109-5.741 6.97 6.97 0 0 0-5.186-2.253 6.419 6.419 0 0 0-4.008 1.387 9.391 9.391 0 0 0-2.233 2.584 1.222 1.222 0 0 1-2.1 0 9.38 9.38 0 0 0-2.233-2.584 6.417 6.417 0 0 0-4.007-1.387zm0 0"/></g></symbol><symbol viewBox="0 0 26.979 30.5" id="html" xmlns="http://www.w3.org/2000/svg"><defs><clipPath id="ha"><path data-name="Rectangle 7" d="M0 0h26.979v30.5H0z"/></clipPath></defs><g data-name="Group 66" clip-path="url(#ha)"><path data-name="Path 25" d="M2.732 27.35l10.208 2.88a1.441 1.441 0 0 0 .671 0l10.284-2.881a.539.539 0 0 0 .366-.441L26.625.348a.312.312 0 0 0-.318-.347H.319a.312.312 0 0 0-.316.347l2.364 26.56a.543.543 0 0 0 .366.443zM5.285 5.573h16.056a.312.312 0 0 1 .317.347l-.24 2.621a.388.388 0 0 1-.38.347H8.961a.317.317 0 0 0-.32.349l.228 2.735a.384.384 0 0 0 .376.347h11.509a.313.313 0 0 1 .316.347l-.883 9.616a.543.543 0 0 1-.368.439l-6.132 1.692a3.447 3.447 0 0 0-.337.1c0 .005-.017.008-.037.008s-.189-.041-.375-.092L6.75 22.718a.534.534 0 0 1-.364-.439l-.361-4.575a.316.316 0 0 1 .32-.347h2.62a.388.388 0 0 1 .381.347l.182 1.959a.539.539 0 0 0 .37.438l3.041.824a1.554 1.554 0 0 0 .672 0l3.062-.824a.539.539 0 0 0 .369-.437l.351-3.627a.309.309 0 0 0-.315-.345h-10.9a.389.389 0 0 1-.38-.347l-.829-9.428a.314.314 0 0 1 .319-.347zm0 0"/></g></symbol><symbol viewBox="0 0 29.944 30.858" id="line" xmlns="http://www.w3.org/2000/svg"><rect data-name="Rectangle 4" width="39" height="2" rx="1" transform="rotate(-45.97 34.255 13.547)"/></symbol><symbol viewBox="0 0 9.908 10.646" id="night" xmlns="http://www.w3.org/2000/svg"><path data-name="Path 29" d="M9.829 7.7a.356.356 0 0 0-.4-.11 3.754 3.754 0 0 1-1.271.214A3.9 3.9 0 0 1 5.965.674a.355.355 0 0 0-.148-.645 3.445 3.445 0 0 0-.5-.032A5.323 5.323 0 1 0 9.85 8.111a.357.357 0 0 0-.021-.411z"/></symbol><symbol viewBox="0 0 29.736 31.104" id="pointer" xmlns="http://www.w3.org/2000/svg"><path data-name="Path 13" d="M29.605 24.099a1.576 1.576 0 0 1-.527 1.9l-7.061 4.617a3.079 3.079 0 0 1-3.76-.346 21.25 21.25 0 0 0-7.3-4.3 7.331 7.331 0 0 1-2.872-1.555c-.593-.552-1.506-1.136-2.107-1.638a23.717 23.717 0 0 0-5.184-3.316c-.831-.362-.987-.922-.576-1.745a2.582 2.582 0 0 1 1.2-1.07 4.721 4.721 0 0 1 2.979.049c.584.115 3.02 1.679 4.155 2.239.979.485 1.234-.411 1.242-1.5a5.046 5.046 0 0 0-.321-1.555C7.663 11.452 5.745 7.066 3.828 2.63A1.8 1.8 0 0 1 4.577.211a1.881 1.881 0 0 1 2.477.7c.79 1.226 1.53 2.444 2.32 3.719.691 1.16 1.44 2.271 2.131 3.432l.881 1.4a24.124 24.124 0 0 1 12.895.667 1.245 1.245 0 0 1 .782.79 30.05 30.05 0 0 1 2.312 9.365 20.382 20.382 0 0 0 .609 2.4zm0 0"/></symbol><symbol viewBox="0 0 33 33" id="square" xmlns="http://www.w3.org/2000/svg"><g data-name="Rectangle 5" stroke-width="3"><path d="M3 3h27v27H3z"/><path d="M1.5 1.5h30v30h-30z"/></g></symbol><symbol viewBox="0 0 36.499 34.842" id="star" xmlns="http://www.w3.org/2000/svg"><path data-name="Path 21" d="M7.827 34.077a.624.624 0 0 1-.614-.733l1.935-11.279-8.2-7.987a.625.625 0 0 1 .346-1.067l11.324-1.644 5.065-10.264a.628.628 0 0 1 .563-.349.619.619 0 0 1 .559.349l5.065 10.264 11.325 1.644a.625.625 0 0 1 .348 1.067l-8.2 7.99 1.935 11.279a.63.63 0 0 1-.25.611.621.621 0 0 1-.66.045l-10.126-5.324-10.13 5.324a.618.618 0 0 1-.293.074zM2.735 14.066l7.522 7.333a.625.625 0 0 1 .177.556L8.659 32.307l9.3-4.891a.629.629 0 0 1 .581 0l9.3 4.891-1.776-10.352a.636.636 0 0 1 .18-.556l7.523-7.333-10.4-1.51a.615.615 0 0 1-.471-.342l-4.649-9.417-4.65 9.417a.632.632 0 0 1-.47.345zm0 0"/></symbol><symbol viewBox="0 0 19.727 23.954" id="upload" xmlns="http://www.w3.org/2000/svg"><path d="M19.727 8.454H14.09V0H5.636v8.454H0l9.863 9.863zM0 21.136v2.818h19.727v-2.818z"/></symbol><symbol viewBox="0 0 29.687 22.485" id="video" xmlns="http://www.w3.org/2000/svg"><g data-name="Group 187"><path data-name="Path 27" d="M19.413 9.913l-6.559-3.589a1.2 1.2 0 0 0-1.783 1.057v7.115a1.2 1.2 0 0 0 1.775 1.061l6.559-3.526a1.2 1.2 0 0 0 .008-2.118zm-6.6 3.689V8.284l4.9 2.682zm0 0"/><path data-name="Path 28" d="M29.468 5.307v-.014a6.788 6.788 0 0 0-1.309-3.445 4.833 4.833 0 0 0-3.2-1.5l-.147-.017-.052-.005C20.836.041 14.909.002 14.849.001h-.01c-.059 0-5.986.039-9.946.325l-.052.005-.139.017a4.71 4.71 0 0 0-3.181 1.547 7.112 7.112 0 0 0-1.3 3.383v.03c-.009.1-.218 2.466-.218 4.843v2.221c0 2.376.21 4.744.218 4.843v.015a6.724 6.724 0 0 0 1.3 3.4 4.931 4.931 0 0 0 3.307 1.479c.121.014.224.025.3.038l.069.01c2.266.215 9.371.322 9.672.326h.018c.06 0 5.986-.039 9.911-.325l.052-.005.167-.019a4.6 4.6 0 0 0 3.153-1.509 7.113 7.113 0 0 0 1.3-3.383v-.03c.009-.1.219-2.466.219-4.843v-2.221c0-2.377-.21-4.743-.219-4.843zm-1.521 7.064c0 2.2-.192 4.465-.21 4.672a5.516 5.516 0 0 1-.853 2.41 2.861 2.861 0 0 1-2.053.953l-.185.021c-3.8.274-9.5.317-9.762.318-.295 0-7.3-.112-9.492-.316-.113-.018-.234-.032-.362-.047a3.251 3.251 0 0 1-2.225-.929l-.016-.017a5.009 5.009 0 0 1-.837-2.386 60.645 60.645 0 0 1-.211-4.679V10.15c0-2.2.192-4.46.21-4.672a5.407 5.407 0 0 1 .854-2.41 3 3 0 0 1 2.1-.992l.142-.017c3.851-.276 9.6-.317 9.8-.318s5.948.043 9.765.318l.153.018a3.115 3.115 0 0 1 2.131.965l.007.007a5.094 5.094 0 0 1 .837 2.421c.013.148.211 2.445.211 4.68zm0 0"/></g></symbol><symbol viewBox="0 0 23.482 28.179" id="youtube" xmlns="http://www.w3.org/2000/svg"><g data-name="Group 68"><path data-name="Path 26" d="M19.864 20.611h-1.547l.007-.9a.729.729 0 0 1 .728-.726h.1a.73.73 0 0 1 .729.726zm-5.8-1.925a.662.662 0 0 0-.713.587v4.368a.728.728 0 0 0 1.428 0v-4.368a.663.663 0 0 0-.715-.587zm9.42-2.443v8.31a3.749 3.749 0 0 1-3.842 3.625h-15.8A3.748 3.748 0 0 1 0 24.553v-8.31a3.748 3.748 0 0 1 3.842-3.625h15.8a3.749 3.749 0 0 1 3.842 3.625zM4.897 25.455V16.7h1.958v-1.3l-5.221-.007v1.275h1.63v8.778zm5.871-7.45H9.135v4.675a8.531 8.531 0 0 1 0 1.133c-.133.362-.729.748-.963.039a9.476 9.476 0 0 1 0-1.14l-.006-4.707H6.542v4.632c0 .711-.017 1.24.006 1.481.04.425.024.92.419 1.2a1.972 1.972 0 0 0 2.495-.836v.966h1.312V18zm5.224 5.354v-3.893c0-1.481-1.112-2.369-2.617-1.171l.008-2.893h-1.631l-.008 9.985 1.341-.02.122-.622c1.714 1.573 2.792.5 2.789-1.389zm5.111-.517l-1.225.008v.848a.668.668 0 0 1-.67.662h-.24a.668.668 0 0 1-.67-.662v-1.8h2.8v-1.055a16.975 16.975 0 0 0-.083-1.983c-.2-1.394-2.158-1.616-3.148-.9a1.841 1.841 0 0 0-.685.923 5.187 5.187 0 0 0-.208 1.645v2.319c0 3.857 4.684 3.311 4.126-.006zm-6.28-12.594a1.11 1.11 0 0 0 .393.5 1.129 1.129 0 0 0 .668.185 1.036 1.036 0 0 0 .625-.194 1.506 1.506 0 0 0 .457-.585l-.031.64h1.821v-7.74h-1.432v6.024a.6.6 0 0 1-1.194 0V3.054h-1.495v5.221c0 .665.012 1.108.032 1.333a2.241 2.241 0 0 0 .156.645zM9.307 5.876a6.482 6.482 0 0 1 .185-1.742 1.864 1.864 0 0 1 1.9-1.385 2.256 2.256 0 0 1 1.083.245 1.786 1.786 0 0 1 .7.634 2.53 2.53 0 0 1 .338.806 6.535 6.535 0 0 1 .09 1.267v1.958a10.73 10.73 0 0 1-.084 1.581 2.485 2.485 0 0 1-.359.941 1.689 1.689 0 0 1-.7.643 2.213 2.213 0 0 1-.987.208 2.716 2.716 0 0 1-1.052-.177 1.431 1.431 0 0 1-.671-.537 2.393 2.393 0 0 1-.342-.867 8.346 8.346 0 0 1-.1-1.526zm1.425 3.074a.726.726 0 1 0 1.446 0V4.83a.726.726 0 1 0-1.446 0zm-5.036 2.081h1.717V5.095L9.442.01H7.565L6.486 3.786 5.39 0H3.531L5.69 5.1zm0 0"/></g></symbol></svg>